# xmcd CD database file
#
# Track frame offsets:
#	150
#	23763
#	54363
#	75037
#	104787
#	153882
#	175330
#	198551
#	214852
#	246390
#	272658
#
# Disc length: 4119 seconds
#
# Revision: 0
# Processed by: cddbd v1.5.2PL0 Copyright (c) Steve Scherf et al.
# Submitted via: CDex 1.51
#
DISCID=8f10150b
DTITLE=Chasper Wanner Quartet - featuring Danny Gottlieb
DYEAR=1900
DGENRE=Jazz
TTITLE0=Until
TTITLE1=Transition I
TTITLE2=Transition II
TTITLE3=Gone
TTITLE4=Crave
TTITLE5=Mice
TTITLE6=Softening
TTITLE7=The Gag
TTITLE8=Treatment
TTITLE9=Driven
TTITLE10=The Castle
EXTD=
EXTT0=
EXTT1=
EXTT2=
EXTT3=
EXTT4=
EXTT5=
EXTT6=
EXTT7=
EXTT8=
EXTT9=
EXTT10=
PLAYORDER=
